<?xml version="1.0" encoding="UTF-8"?>
<svg id="Calque_2" data-name="Calque 2" xmlns="http://www.w3.org/2000/svg" viewBox="0 0 191.9 159.75">
  <defs>
    <style>
      .cls-1 {
        fill: #fff;
      }

      .cls-1, .cls-2 {
        stroke-width: 0px;
      }

      .cls-2 {
        fill: #f9c3b0;
      }
    </style>
  </defs>
  <g id="Calque_1-2" data-name="Calque 1">
    <circle class="cls-1" cx="78.12" cy="81.63" r="2.56"/>
    <path class="cls-1" d="m78.12,3.51C34.98,3.51,0,38.48,0,81.63s34.98,78.12,78.12,78.12,78.12-34.98,78.12-78.12S121.27,3.51,78.12,3.51ZM26.14,83.89c.16,3.59-2.62,6.62-6.2,6.78-.1,0-.2,0-.3,0-3.46,0-6.33-2.72-6.49-6.21-.91-20.29,5.9-39.59,18.69-52.94,12.34-12.88,29.26-19.71,48.84-19.65,3.59,0,6.5,2.92,6.49,6.51,0,3.59-2.92,6.49-6.5,6.49-.04,0-.08,0-.12,0-15.93,0-29.52,5.41-39.32,15.64-10.34,10.8-15.85,26.61-15.09,43.37Zm51.98,29.22c-17.39,0-31.49-14.1-31.49-31.49s14.1-31.49,31.49-31.49,31.49,14.1,31.49,31.49-14.1,31.49-31.49,31.49Z"/>
    <path class="cls-2" d="m153.14,8.38l-7.57,7.57-7.57-7.57c-23.34-23.34-53.71,7.03-30.37,30.37l7.57,7.57,30.37,30.37,30.37-30.37,7.57-7.57c23.34-23.34-7.03-53.71-30.37-30.37Z"/>
  </g>
</svg>