<?xml version="1.0" encoding="UTF-8"?>
<svg id="Calque_2" data-name="Calque 2" xmlns="http://www.w3.org/2000/svg" viewBox="0 0 254.43 138.53">
  <defs>
    <style>
      .cls-1, .cls-2, .cls-3, .cls-4, .cls-5 {
        stroke-width: 0px;
      }

      .cls-2 {
        fill: #ef7d53;
      }

      .cls-3 {
        fill: #fff;
      }

      .cls-4 {
        fill: #facab9;
      }

      .cls-5 {
        fill: #d36b49;
      }
    </style>
  </defs>
  <g id="Calque_1-2" data-name="Calque 1">
    <g>
      <path class="cls-3" d="m234.59,77.18c-4.04,0-7.46-.64-10.28-1.91s-5.1-2.96-6.84-5.06-3.01-4.46-3.81-7.09c-.8-2.62-1.2-5.26-1.2-7.92,0-2.93.57-5.83,1.7-8.71,1.13-2.87,2.75-5.5,4.85-7.88,2.1-2.38,4.6-4.28,7.5-5.72,2.9-1.44,6.15-2.16,9.74-2.16,3.26,0,5.98.49,8.17,1.45,2.18.97,3.81,2.35,4.89,4.15,1.08,1.8,1.62,3.94,1.62,6.43,0,2.71-.54,5.04-1.62,7.01-1.08,1.96-2.64,3.63-4.68,5.02-2.38,1.6-4.91,2.81-7.59,3.61-2.68.8-5.65,1.34-8.91,1.62.5,1,1.09,1.89,1.78,2.7.69.8,1.55,1.45,2.57,1.95,1.02.5,2.22.75,3.61.75,1.88,0,3.54-.44,4.98-1.33,1.44-.88,2.74-1.93,3.9-3.15.72-.77,1.34-1.27,1.87-1.49.53-.22.98-.33,1.37-.33.77,0,1.59.3,2.45.91.86.61,1.64,1.34,2.36,2.2.72.86,1.16,1.73,1.33,2.61.22.88.12,1.75-.29,2.61-.42.86-.82,1.48-1.2,1.87-2.05,2.21-4.64,4.08-7.79,5.6-3.15,1.52-6.63,2.28-10.45,2.28Zm-7.13-26.86c1.27-.11,2.25-.25,2.94-.42s1.62-.5,2.78-1c1.16-.44,2.16-1.15,2.98-2.11.83-.97,1.24-2.09,1.24-3.36,0-.5-.11-.94-.33-1.33-.22-.39-.55-.7-1-.95s-1-.37-1.66-.37c-.88,0-1.73.33-2.53,1-.8.66-1.51,1.49-2.11,2.49-.61,1-1.12,2.03-1.53,3.11-.42,1.08-.68,2.06-.79,2.94Z"/>
      <g>
        <path class="cls-3" d="m5.64,26.49c-1.88-.11-3.29-.68-4.23-1.7-.94-1.02-1.41-3.14-1.41-6.34,0-2.6.47-4.39,1.41-5.39.94-.99,2.27-1.46,3.98-1.41,1.55.06,3.51.11,5.89.17,2.38.06,4.85.1,7.42.12,2.57.03,4.88.04,6.92.04,4.15,0,8.25-.04,12.31-.12,4.06-.08,7.92-.21,11.57-.37,1.55-.05,2.75.42,3.61,1.41.86.99,1.29,2.74,1.29,5.22,0,3.32-.46,5.5-1.37,6.55-.91,1.05-2.31,1.6-4.19,1.66-3.32.11-6.95.22-10.9.33-3.95.11-7.97.17-12.06.17-3.59,0-7.16-.04-10.7-.12-3.54-.08-6.72-.15-9.54-.21Zm12.52-8.96c0-.55.33-1.02,1-1.41.66-.39,1.45-.72,2.36-1,.91-.28,1.81-.48,2.69-.62.88-.14,1.52-.21,1.91-.21.44,0,1.09.07,1.95.21.86.14,1.74.35,2.65.62.91.28,1.69.61,2.32,1,.63.39.95.86.95,1.41,0,9.56-.17,18.93-.5,28.11-.33,9.18-.83,18.05-1.49,26.62-.06,1.22-.53,2.17-1.41,2.86-.88.69-1.92,1.17-3.11,1.45-1.19.28-2.36.41-3.52.41s-2.35-.15-3.57-.46c-1.22-.3-2.23-.84-3.03-1.62-.8-.77-1.15-1.85-1.04-3.23.61-7.96,1.06-16.58,1.37-25.87.3-9.29.46-18.71.46-28.27Z"/>
        <path class="cls-3" d="m72.38,76.4c-2.43,0-4.55-.46-6.34-1.37-1.8-.91-3.29-2.21-4.48-3.9-1.19-1.69-2.07-3.7-2.65-6.05-.58-2.35-.87-4.93-.87-7.75,0-4.42.22-8.42.66-11.98.44-3.57,1-7.17,1.66-10.82.22-1.27.93-2.42,2.11-3.44,1.19-1.02,3.19-1.53,6.01-1.53s4.71.57,5.85,1.7c1.13,1.13,1.56,2.58,1.29,4.35-.39,2.32-.79,4.45-1.2,6.38-.41,1.94-.75,3.94-.99,6.01-.25,2.07-.37,4.49-.37,7.25,0,1.82.11,3.3.33,4.44.22,1.13.61,1.96,1.16,2.49.55.53,1.3.79,2.24.79,1,0,1.92-.34,2.78-1.04.86-.69,1.64-1.6,2.36-2.74.72-1.13,1.38-2.4,1.99-3.81.61-1.41,1.11-2.83,1.49-4.27-.22-3.09-.36-6.15-.41-9.16-.06-3.01,0-5.62.17-7.83.11-1.27.75-2.36,1.91-3.28s3.1-1.37,5.8-1.37c2.49,0,4.3.33,5.43,1,1.13.66,1.87,1.53,2.2,2.61.33,1.08.5,2.23.5,3.44,0,1-.01,2-.04,3.03-.03,1.02-.08,2.06-.17,3.11-.08,1.05-.21,2.1-.37,3.15-.17,1.05-.36,2.1-.58,3.15.22,5.92.3,10.63.25,14.14-.06,3.51-.08,6.51-.08,9,0,1.66-.66,2.81-1.99,3.44s-3.29.95-5.89.95c-2.38,0-4.05-.44-5.02-1.33-.97-.88-1.45-1.77-1.45-2.65,0-.55.05-1.15.17-1.78.11-.63.22-1.37.33-2.2.11-.83.14-1.77.08-2.82-.39,1-.88,2.1-1.49,3.32-.61,1.22-1.42,2.39-2.45,3.52-1.02,1.13-2.34,2.06-3.94,2.78-1.6.72-3.59,1.08-5.97,1.08Z"/>
      </g>
      <path class="cls-2" d="m202.15,48.66h-3c0-24.75-19.59-45.66-42.77-45.66s-40.71,19.72-40.71,44.89h-3c0-26.86,19.2-47.89,43.71-47.89s45.77,22.29,45.77,48.66Z"/>
      <rect class="cls-5" x="110.42" y="47.37" width="9.97" height="17.82" rx="2.99" ry="2.99"/>
      <rect class="cls-2" x="116.26" y="39.96" width="14.17" height="32.65" rx="4.25" ry="4.25"/>
      <rect class="cls-4" x="123.35" y="35.8" width="17.25" height="40.96" rx="5.18" ry="5.18"/>
      <path class="cls-3" d="m78.9,115.57c11.25.8,25.58-11.5,27.31-22.53,0,0,.02-.17.02-.17v-.09c0-.11-.03-.16.01-.1.05.07.15.08.1.07-.43.06-.99.78-1.18,1.36-2.9,7.08-1,31.1,6.57,34.83,3.12,1.91,7.13,2.51,10.69,1.59,7.74-1.87,9-11.98,10.25-18.67.57-3.86.9-7.76,1.01-11.66.04-1.94.05-3.92-.14-5.78-.08-.55-.14-1.04-.45-1.33-.02,0,.15.02.16-.01-.89,2.3-.06,5.17.64,7.57,2.37,7.55,7.16,14.01,9.78,21.5,1.43,4.89,1.54,10.19.44,15.15-.12.29-.27.61-.64.93-.35.34-1.15.42-1.56.14-1.22-.82-1.35-1.93-1.69-3.08-.86-3.41-1.05-6.97-1.02-10.47.17-9.35,2.69-27.35,9.07-34.3,13.7-12.57,40.42,22.4,2.51,23.92-1.58.17-3.16-.22-4.6-.8-.44-.18-1.18-.45-1.51-1.28-.3-.77.17-1.62.77-2.02,3.19-1.99,7.22-.78,10.63-.26,5.78,1.11,11.46,2.76,17.34,2.57,7.62-.79,15.4-3.24,21.86-7.41,5.77-3.66,5.33-9.4,2.56-14.91-1.66-3.6-3.05-7.6-2.66-11.66,0,0,1.15.09,1.15.09-.36,3.9.98,7.58,2.59,11.1,1.71,3.57,3.09,7.99,1.23,11.83-3.34,6.42-14.11,9.56-20.72,11.28-7.8,2.25-15.92-.06-23.59-1.6-2.17-.38-8.82-1.81-9.89.55.03.29,1.26.7,2.08.94.89.27,1.8.33,2.71.25,6.7-.43,17.3-1.71,18.17-9.99.13-5.66-4.45-10.68-9.4-12.9-9.25-3.88-12.97,3.98-15.16,11.55-2.2,7.47-3.46,15.29-3.57,23.08,0,3.81.18,7.74,1.39,11.36.14.37.42.75.52.78.05-.01-.2,0-.18.02.01,0,.11-.13.17-.29.9-4.5.84-9.64-.52-14.08-1.9-5.53-5.23-10.49-7.6-15.89-1.49-3.26-5.3-12.22-2.15-15.1,3.81-1.56,2.91,6.61,3.01,8.61-.29,7.97-1.04,15.97-3.87,23.53-1.35,3.88-4.43,7.6-8.63,8.49-4.08,1.05-8.48.4-12.09-1.78-6.69-3.94-7.78-15.02-8.58-22.07-.22-3.85-1.13-16.91,4.1-17.58,1.23-.07,1.98,1.1,1.83,2.2,0,0-.03.2-.03.2l-.05.39c-.83,5.36-4.17,10.02-7.78,13.84-5.66,5.7-13.13,10.56-21.54,10.09,0,0,.17-1.99.17-1.99h0Z"/>
      <g>
        <g>
          <path class="cls-3" d="m69.34,112.59v1.48s0,5.31,0,5.31c5.58.13,10.78.61,10.78-3.36,0-3.6-3.36-3.3-10.78-3.43Z"/>
          <path class="cls-1" d="m73.45,119.85c-.9,0-1.86-.03-2.85-.06l-1.27-.03c-.2,0-.37-.17-.37-.38v-6.79c0-.1.04-.2.11-.27.07-.07.17-.11.27-.11l1.85.03c6.19.08,9.3.12,9.3,3.78,0,1-.31,1.81-.92,2.4-1.21,1.18-3.43,1.42-6.12,1.42Zm-3.74-.83l.91.02c3.62.1,7.04.2,8.43-1.15.47-.46.7-1.07.7-1.86,0-2.78-2.06-2.94-8.56-3.03l-1.47-.02v6.05Z"/>
        </g>
        <g>
          <g>
            <polygon class="cls-3" points="61.66 113.98 61.66 117.95 69.34 118.08 69.34 113.98 61.66 113.98"/>
            <path class="cls-1" d="m69.34,118.45h0l-7.67-.13c-.2,0-.37-.17-.37-.38v-3.97c0-.21.17-.38.38-.38h7.67c.21,0,.38.17.38.38v4.1c0,.1-.04.2-.11.27-.07.07-.16.11-.26.11Zm-7.3-.87l6.92.12v-3.34h-6.92v3.22Z"/>
          </g>
          <g>
            <line class="cls-3" x1="66.72" y1="113.98" x2="66.72" y2="118.08"/>
            <rect class="cls-1" x="66.34" y="113.98" width=".75" height="4.1"/>
          </g>
          <g>
            <line class="cls-3" x1="64.14" y1="117.99" x2="64.14" y2="113.98"/>
            <rect class="cls-1" x="63.77" y="113.98" width=".75" height="4.01"/>
          </g>
          <g>
            <polygon class="cls-3" points="61.66 114.68 58.87 113.98 56.98 115.94 58.88 117.99 61.66 117.21 61.66 114.68"/>
            <path class="cls-1" d="m58.88,118.37c-.1,0-.2-.04-.28-.12l-1.9-2.06c-.14-.15-.13-.37,0-.52l1.89-1.95c.09-.1.23-.13.36-.1l2.79.7c.17.04.28.19.28.36v2.52c0,.17-.11.32-.27.36l-2.78.79s-.07.01-.1.01Zm-1.39-2.43l1.51,1.63,2.29-.65v-1.95s-2.3-.58-2.3-.58l-1.49,1.54Z"/>
          </g>
        </g>
      </g>
      <rect class="cls-5" x="194.46" y="47.37" width="9.97" height="17.82" rx="2.99" ry="2.99" transform="translate(398.89 112.57) rotate(-180)"/>
      <rect class="cls-2" x="184.41" y="39.96" width="14.17" height="32.65" rx="4.25" ry="4.25" transform="translate(382.99 112.57) rotate(-180)"/>
      <rect class="cls-4" x="174.25" y="35.8" width="17.25" height="40.96" rx="5.18" ry="5.18" transform="translate(365.75 112.57) rotate(180)"/>
    </g>
  </g>
</svg>